<svg xmlns="http://www.w3.org/2000/svg" viewBox="0 0 91.26 13.93"><defs><style>.cls-1{fill:#d5d5d6;}</style></defs><g id="レイヤー_2" data-name="レイヤー 2"><g id="Design"><path class="cls-1" d="M3.2,9.46,1.8,13.7H0L4.58.21h2.1l4.6,13.49H9.42L8,9.46ZM7.62,8.1,6.3,4.22c-.3-.89-.5-1.69-.7-2.47h0c-.2.8-.42,1.63-.68,2.45L3.56,8.1Z"/><path class="cls-1" d="M21.26.4A16.86,16.86,0,0,1,24.44.12a5.57,5.57,0,0,1,3.7,1,2.83,2.83,0,0,1,1.12,2.38,3.2,3.2,0,0,1-2.28,3v0a3.47,3.47,0,0,1,2.78,3.38,3.63,3.63,0,0,1-1.14,2.7c-.94.86-2.46,1.26-4.66,1.26a20.34,20.34,0,0,1-2.7-.16Zm1.74,12a9.3,9.3,0,0,0,1.46.08c1.8,0,3.46-.66,3.46-2.62s-1.58-2.6-3.48-2.6H23Zm0-6.46h1.58c1.84,0,2.92-1,2.92-2.26,0-1.58-1.2-2.2-3-2.2A7.46,7.46,0,0,0,23,1.58Z"/><path class="cls-1" d="M51.62,6.82c0,4.64-2.82,7.1-6.26,7.1S39.3,11.16,39.3,7.08C39.3,2.8,42,0,45.56,0S51.62,2.82,51.62,6.82ZM41.16,7c0,2.88,1.56,5.46,4.3,5.46S49.78,10,49.78,6.9c0-2.68-1.4-5.48-4.3-5.48S41.16,4.08,41.16,7Z"/><path class="cls-1" d="M63.62.22v8c0,3,1.34,4.3,3.14,4.3,2,0,3.28-1.32,3.28-4.3v-8H71.8V8.09c0,4.14-2.18,5.84-5.1,5.84-2.76,0-4.84-1.58-4.84-5.77V.22Z"/><path class="cls-1" d="M85.38,1.71h-4.1V.23h10V1.71H87.14v12H85.38Z"/></g></g></svg>