<svg xmlns="http://www.w3.org/2000/svg" viewBox="0 0 127.86 13.93"><defs><style>.cls-1{fill:#d5d5d6;}</style></defs><g id="レイヤー_2" data-name="レイヤー 2"><g id="Design"><path class="cls-1" d="M10.22,13.26a8.64,8.64,0,0,1-3.56.64C2.86,13.9,0,11.5,0,7.08A6.71,6.71,0,0,1,7,0a7.23,7.23,0,0,1,3.2.6L9.82,2A6.34,6.34,0,0,0,7.1,1.46c-3.16,0-5.26,2-5.26,5.56,0,3.3,1.9,5.42,5.18,5.42a7,7,0,0,0,2.84-.56Z"/><path class="cls-1" d="M31.92,6.83c0,4.64-2.82,7.1-6.26,7.1S19.6,11.17,19.6,7.08C19.6,2.8,22.26,0,25.86,0S31.92,2.83,31.92,6.83ZM21.46,7c0,2.88,1.56,5.47,4.3,5.47s4.32-2.54,4.32-5.6c0-2.69-1.4-5.49-4.3-5.49S21.46,4.08,21.46,7Z"/><path class="cls-1" d="M42.18,13.71V.23h1.9L48.4,7.05a38.16,38.16,0,0,1,2.42,4.38l0,0c-.16-1.8-.2-3.44-.2-5.54V.23H52.3V13.71H50.54L46.26,6.87a42.79,42.79,0,0,1-2.52-4.5l-.06,0c.1,1.7.14,3.32.14,5.56v5.76Z"/><path class="cls-1" d="M72.76,13.27a8.64,8.64,0,0,1-3.56.64c-3.8,0-6.66-2.4-6.66-6.82a6.71,6.71,0,0,1,7-7.08,7.23,7.23,0,0,1,3.2.6L72.36,2a6.34,6.34,0,0,0-2.72-.56c-3.16,0-5.26,2-5.26,5.56,0,3.3,1.9,5.42,5.18,5.42a7,7,0,0,0,2.84-.56Z"/><path class="cls-1" d="M89.92,7.39H84.68v4.86h5.84v1.46H82.94V.23h7.28V1.69H84.68V6h5.24Z"/><path class="cls-1" d="M100.78.39a20.17,20.17,0,0,1,3.34-.26,5.54,5.54,0,0,1,3.78,1.13,3.62,3.62,0,0,1,1.18,2.82A4,4,0,0,1,108,7a5.59,5.59,0,0,1-4.12,1.48,6,6,0,0,1-1.4-.12v5.4h-1.74Zm1.74,6.51A5.84,5.84,0,0,0,104,7c2.1,0,3.38-1,3.38-2.88s-1.26-2.64-3.18-2.64a7.3,7.3,0,0,0-1.64.14Z"/><path class="cls-1" d="M122,1.72h-4.1V.24h10V1.72h-4.12v12H122Z"/></g></g></svg>