<?xml version="1.0" encoding="utf-8"?>
<!-- Generator: Adobe Illustrator 25.0.0, SVG Export Plug-In . SVG Version: 6.00 Build 0)  -->
<svg version="1.1" id="レイヤー_1" xmlns="http://www.w3.org/2000/svg" xmlns:xlink="http://www.w3.org/1999/xlink" x="0px"
	 y="0px" viewBox="0 0 339.47 301.24" style="enable-background:new 0 0 339.47 301.24;" xml:space="preserve">
<style type="text/css">
	.st0{fill:#363536;}
</style>
<path class="st0" d="M337.42,78.05c-2.57-1.63-5.83,0.45-6.73,1.09c-28.93,16.57-136.91,31.91-145.7,33.14
	c-1.12-0.88-2.44-1.3-3.74-1.51c21.8-12.53,35-27.41,37.15-32.99c1.62-4.2,1.39-7.12-0.66-8.67c-0.06-0.04-0.13-0.07-0.19-0.11
	c15.87-14.08,25.49-26.32,25.72-26.62c0.16-0.2,0.28-0.45,0.35-0.7c0.68-2.37,0.37-4.18-0.89-5.37c-0.09-0.09-0.19-0.13-0.29-0.21
	c1.91-1.55,3.81-3.11,5.7-4.68c4.4-3.65,12.16-12.74,14.96-18.18c1.41-2.75,2.86-6.28,1.61-9.26c-0.73-1.73-2.22-2.95-4.42-3.63
	c-4.23-1.3-8.48,1.19-11.58,3.01l-0.15,0.08l-10.97,6.75c-5.4,3.41-10.98,6.94-16.72,9.96c-15.29,8.05-30.95,15.34-42.89,20.78
	c0,0-21.94,9.89-22.85,10.3c-28.24,6.97-53.68,37.5-59.74,45.22c-4.29-4.55-8.87-8.91-14.32-12.31c-7.32-4.57-17.02-6.41-27.3-5.17
	C32.2,81.56,1.99,107.47,0.72,108.57c-0.66,0.57-0.9,1.5-0.58,2.31s1.12,1.34,2,1.3c12.44-0.47,21.48,2.39,27.65,8.75
	c7.57,7.78,13.68,17.27,17.2,26.73l2.47,7.45c7.12,22.59,20.39,64.61,71.9,69.05c18.82,1.62,37.81-0.42,43.71-1.48
	c4.67,21.12,14.05,31.59,14.58,32.17c1.74,1.7,6.15,6.01,10.69,3.96c0.23-0.1,0.38-0.24,0.57-0.35c0.82,1.61,1.77,3.18,2.99,4.24
	c1.83,1.58,5.38,4.1,8.55,3.12c0.41-0.13,0.85-0.37,1.3-0.69c2.49,6.4,7.28,13.47,14.18,15.01c1.6,0.35,3.17,0.07,4.58-0.75
	c1.3,6.81,5.99,11.86,9.22,14.62c6.29,5.38,14.1,8.33,18.15,6.85c3.4-1.25,5.75-3.67,6.96-7.2c6.38-18.5-21.94-64.33-23.16-66.28
	c-13.55-19.59-29.16-34.69-34.43-39.57c3.38-1.99,6.5-4.38,8.67-7.05c17.23-3.96,44.39-12.44,47.04-26.94
	c11.98-4.9,48.41-23.39,51.29-36.24c24.5-13.21,32.16-29.53,32.61-30.54c0.07-0.14,0.11-0.29,0.14-0.44
	C339.61,83.75,340.07,79.73,337.42,78.05z M182.72,115.63c5.18,5.53-49.91,42.61-84.3,48.6c0,0-1.83,0.33-4.58,0.45
	c-2.71,0.12-6.31,0.03-9.91-0.76c-0.2-0.08-0.4-0.11-0.61-0.13c-6.29-1.53-12.4-5.33-13.52-14.17c-0.89-7,2.48-15.69,20.52-17.45
	c15.64-2.4,30.33-4.21,50.2-7.65c6.32-1.09,28.26-9.35,37.97-9.79C180.52,114.64,182.01,114.89,182.72,115.63z M214.56,76.3
	c-1.87,4.85-17.55,22.47-43.51,35.28c-0.07,0.03-0.09,0.11-0.16,0.14c-6.13,1.32-13.43,3.56-19.7,5.5
	c-4.79,1.48-9.32,2.88-11.38,3.23c-8.18,1.41-15.46,2.55-22.32,3.57c-1.12-1.72-2.3-3.47-3.51-5.23l7.29-7.63
	c36.04,1.33,68.87-19.03,91.38-37.95c1.01-0.76,2.31-0.99,2.61-0.81c0,0.01,0.06,0.15,0.08,0.49
	C215.38,73.42,215.27,74.46,214.56,76.3z M239.75,40.21c-1.78,2.23-12.61,15.43-29.3,29.54c-0.1,0.07-0.21,0.13-0.3,0.2
	c-0.09,0.07-0.14,0.16-0.21,0.24c-21.12,17.74-51.47,36.68-84.74,36.88l18.58-19.46c4.91-0.86,11.15-2.1,17.31-4.17
	c21.52-7.25,38.98-17.38,58.57-30.36c6.82-4.52,12.79-9.01,18.49-13.53c0.62-0.18,1.38-0.27,1.7-0.19c0.01,0.01,0.01,0.01,0.01,0.02
	C239.86,39.52,239.82,39.82,239.75,40.21z M179.7,44.69c11.98-5.47,27.7-12.78,43.09-20.88c5.88-3.1,11.54-6.67,17-10.12l10.86-6.68
	l0.14-0.08c2.44-1.43,5.8-3.4,8.29-2.63c1.48,0.46,1.75,1.09,1.83,1.3c0.67,1.6-0.94,4.74-1.48,5.77
	c-2.54,4.95-9.9,13.57-13.92,16.9c-8.71,7.21-17.42,14.28-28.13,21.38c-19.32,12.8-36.51,22.78-57.61,29.88
	c-3.77,1.27-7.57,2.2-11.09,2.94l14.91-15.61c0.48-0.51,4.53-5,4.21-9.62c-0.14-1.98-1.07-3.72-2.7-5.04
	c-0.27-0.22-0.6-0.35-0.9-0.52L179.7,44.69z M156.25,55.19c0.02,0,0.03,0,0.05,0c4.62-1.08,5.82-0.11,6.21,0.2
	c0.75,0.6,1.11,1.27,1.18,2.11c0.17,2.43-2.17,5.54-3.09,6.53l-49.02,51.35c-2.4-3.3-5-6.61-7.92-9.82l-2.94-3.28
	c-0.82-0.91-1.66-1.83-2.49-2.74C103.22,93.17,128.92,61.85,156.25,55.19z M7.78,108.12c3.54-2.81,8.97-6.93,15.21-11.02l0.27,14.43
	C18.82,109.55,13.7,108.41,7.78,108.12z M27.05,94.5c8.9-5.5,18.87-10.44,27.19-11.43c9.36-1.12,18.11,0.5,24.64,4.57
	c7.25,4.53,12.84,10.78,18.75,17.39l2.96,3.29c4.84,5.32,8.82,10.94,12.4,16.36c-2.47,0.36-4.9,0.71-7.31,1.06
	c-5.43,0.78-10.56,1.52-15.89,2.33c-3.9,0.39-7.32,1.12-10.31,2.15c-9.72-14.45-20.43-21.18-29.79-24.02
	c0.84-1.62,1.12-3.8,0.57-6.07c-0.89-3.7-3.58-6.29-6.24-6.17c-0.24,0.01-0.49,0.04-0.73,0.1c-2.89,0.69-4.46,4.52-3.49,8.56
	c0.16,0.67,0.39,1.28,0.66,1.86c-5.83-0.43-10.52,0.41-13.2,1.1L27.05,94.5z M47.39,104.63c-0.08,0.2-0.25,0.54-0.5,0.84
	c-0.99-0.23-1.97-0.42-2.92-0.57c-0.61-0.7-1.16-1.7-1.45-2.91c-0.32-1.37-0.26-2.77,0.17-3.84c0.14-0.36,0.56-1.2,1.26-1.37
	c0.06-0.02,0.13-0.03,0.21-0.03c1.16-0.05,2.81,1.56,3.41,4.03C47.9,102.16,47.83,103.56,47.39,104.63z M121.72,220.06
	c-48.77-4.19-61.5-44.52-68.33-66.17l-2.53-7.66c-3.72-9.98-10.15-19.99-18.1-28.17c-1.61-1.66-3.4-3.09-5.34-4.33l-0.07-3.93
	c5.11-1.65,28.35-7.04,48.31,22.07c-2.65,1.38-4.84,3.08-6.48,5.14c-2.89,3.62-4.08,8.16-3.45,13.11
	c1.18,9.26,7.09,15.38,16.65,17.68c7.58,6.41,11.18,8.72,19.14,13.38c21.84,12.79,39.95,18.32,57.01,17.41
	c1.37-0.08,2.67-0.23,4-0.35c0.02,7.6,0.69,14.4,1.78,20.43C159.55,219.49,140.68,221.69,121.72,220.06z M188.66,255.06
	c-1.99,0.9-5.04-2.09-6.04-3.06c-0.09-0.11-16-18-15.99-54.13c0.7-0.09,1.39-0.24,2.09-0.34c1.87,2.29,8.44,11,12.11,24.84
	c0,0.02,1.46,6.57,1.46,6.57c1.6,7.26,3.25,14.76,5.58,21.88l0.51,1.36c0.49,1.24,0.69,1.9,0.71,2.28
	C189.11,254.86,188.92,254.94,188.66,255.06z M201.92,260.75c-0.08,0.31-0.31,1.03-0.67,1.14c-0.71,0.22-2.58-0.51-4.65-2.3
	c-1.26-1.08-2.42-3.73-3.26-5.66l-0.24-0.56c-0.02-0.05-0.06-0.08-0.09-0.12c-0.2-1.03-0.56-1.96-0.81-2.6l-0.42-1.12
	c-2.28-6.94-3.9-14.33-5.47-21.49l-1.49-6.66c-3.25-12.27-8.54-20.63-11.47-24.61c1.71-0.33,3.43-0.75,5.14-1.17
	c2.43,3.3,4.94,7.68,6.9,11.26c5.15,9.42,8.98,18.14,11.71,26.67c1.76,5.54,3.7,12.03,4.57,18.22
	C202.13,254.98,202.36,259.1,201.92,260.75z M222.56,271.81c-0.11,0.55-0.18,1.09-0.24,1.63c-0.32,0.9-0.89,1.74-1.57,2.24
	c-0.61,0.44-1.24,0.59-1.91,0.44c-6.89-1.54-11.34-11.12-12.6-16.94c0.14-3.17-0.36-7.05-0.5-7.99c-0.92-6.48-2.91-13.19-4.72-18.89
	c-2.81-8.78-6.74-17.75-12.02-27.4c-1.77-3.23-3.98-7.11-6.24-10.39c1.47-0.43,2.97-0.92,4.47-1.43c4.56,4.13,7.66,7.79,11.08,13.17
	c7.64,12,14.35,26.4,19.94,42.81c1.22,3.59,2.04,7.28,2.68,10.42l0.38,1.83c0.74,3.51,1.47,7.11,1.27,10.45
	C222.58,271.78,222.57,271.79,222.56,271.81z M230.26,229.64c7.89,12.69,27.47,48.85,22.7,62.68c-0.8,2.34-2.27,3.86-4.49,4.67
	c-2.02,0.74-8.35-1.22-14.06-6.11c-3.52-3.01-9.02-9.2-7.9-17.35c0.05-0.25,0.13-0.49,0.16-0.74c0.41-4.14-0.52-8.49-1.33-12.34
	l-0.37-1.78c-0.66-3.28-1.53-7.13-2.81-10.93c-5.7-16.73-12.55-31.43-20.37-43.7c-3.17-4.98-6.21-8.69-10.17-12.48
	c1.24-0.49,2.51-1.06,3.8-1.69C198.99,193.1,215.83,208.78,230.26,229.64z M188.27,188.43c-10.19,3.62-19.44,5.48-29.98,6.04
	c-16.21,0.87-33.6-4.49-54.71-16.85c-5.73-3.36-9.13-5.46-13.49-8.84c1.27,0.04,2.58,0.05,3.93-0.01c2.98-0.13,5.04-0.49,5.12-0.5
	c4.73-0.82,9.64-2.18,14.54-3.82c3.16,2.33,33.19,23.41,80.23,19.03c0.46-0.07,2.72-0.41,6.1-1.05
	C196.32,185.05,191.84,187.16,188.27,188.43z M193.42,179.4c-39.1,3.64-66.6-11.4-74.89-16.66c10.55-3.97,20.6-9.03,27.88-13.01
	c6.42,3.58,44.57,22.57,103.81,5.69C244.15,168.95,207.93,177.24,193.42,179.4z M252.56,150.39c-0.05,0.02-0.1,0.03-0.15,0.05
	c-0.56,0.2-1.07,0.38-1.5,0.51c-52.98,15.66-89.63,1.41-100.17-3.65c1.03-0.59,1.99-1.15,2.81-1.63
	c2.73-1.61,11.38-6.82,19.21-12.66c13.97,12.27,76.64,0.98,83.81-0.36c18.08-2.35,32.41-6.81,43.7-12.05
	C292.16,131.16,262.64,146.65,252.56,150.39z M335.02,85.57c-1.09,2.22-18.28,35.12-79.1,43.02c-18.68,3.5-68.13,10.38-79.82,1.86
	c5.24-4.18,9.59-8.46,10.7-11.8c0.29-0.86,0.35-1.7,0.3-2.51c16.49-2.32,116.94-16.96,145.66-33.44c0.07-0.04,0.13-0.09,0.19-0.13
	c0.73-0.54,1.74-0.99,2.21-1.01c0.05,0.1,0.14,0.32,0.16,0.93C335.37,83.12,335.3,84.12,335.02,85.57z"/>
</svg>
