<svg xmlns="http://www.w3.org/2000/svg" viewBox="0 0 11.64 21.54"><defs><style>.cls-1{fill:#999;}</style></defs><g id="レイヤー_2" data-name="レイヤー 2"><g id="Design"><path class="cls-1" d="M11.21,0H8.41C5.27,0,3.25,2.08,3.25,5.3V7.74H.44A.44.44,0,0,0,0,8.18v3.54a.44.44,0,0,0,.44.44H3.25V21.1a.44.44,0,0,0,.44.44H7.35a.44.44,0,0,0,.44-.44V12.16h3.28a.44.44,0,0,0,.44-.44V8.18a.43.43,0,0,0-.13-.31.44.44,0,0,0-.31-.13H7.79V5.67c0-1,.24-1.5,1.53-1.5H11.2a.44.44,0,0,0,.44-.44V.44A.44.44,0,0,0,11.21,0Z"/></g></g></svg>