<svg xmlns="http://www.w3.org/2000/svg" viewBox="0 0 19.39 19.39"><defs><style>.cls-1{fill:#999;}</style></defs><g id="レイヤー_2" data-name="レイヤー 2"><g id="Design"><path class="cls-1" d="M9.7,1.75c2.58,0,2.89,0,3.91.05a5.27,5.27,0,0,1,1.8.34,2.88,2.88,0,0,1,1.12.72A2.88,2.88,0,0,1,17.25,4a5.27,5.27,0,0,1,.34,1.8c0,1,.05,1.33.05,3.92s0,2.89-.05,3.91a5.27,5.27,0,0,1-.34,1.8,3.13,3.13,0,0,1-1.84,1.84,5.27,5.27,0,0,1-1.8.34c-1,0-1.33.05-3.91.05s-2.9,0-3.92-.05A5.27,5.27,0,0,1,4,17.25a2.88,2.88,0,0,1-1.12-.72,2.88,2.88,0,0,1-.72-1.12,5.27,5.27,0,0,1-.34-1.8c0-1-.05-1.33-.05-3.91s0-2.9.05-3.92A5.27,5.27,0,0,1,2.14,4a2.88,2.88,0,0,1,.72-1.12A2.88,2.88,0,0,1,4,2.14a5.27,5.27,0,0,1,1.8-.34c1,0,1.33-.05,3.92-.05M9.7,0c-2.64,0-3,0-4,.06A7.26,7.26,0,0,0,3.34.51,4.82,4.82,0,0,0,1.63,1.63,4.82,4.82,0,0,0,.51,3.34,7.26,7.26,0,0,0,.06,5.7c0,1-.06,1.36-.06,4s0,3,.06,4a7.2,7.2,0,0,0,.45,2.36,4.74,4.74,0,0,0,1.12,1.71,4.82,4.82,0,0,0,1.71,1.12,7,7,0,0,0,2.36.45c1,.05,1.36.06,4,.06s3,0,4-.06a7,7,0,0,0,2.36-.45,5,5,0,0,0,2.83-2.83,7,7,0,0,0,.45-2.36c.05-1,.06-1.36.06-4s0-3-.06-4a7,7,0,0,0-.45-2.36,4.82,4.82,0,0,0-1.12-1.71A4.74,4.74,0,0,0,16.05.51,7.2,7.2,0,0,0,13.69.06c-1,0-1.36-.06-4-.06Z"/><path class="cls-1" d="M9.7,4.72a5,5,0,1,0,5,5A5,5,0,0,0,9.7,4.72Zm0,8.21A3.24,3.24,0,1,1,12.93,9.7,3.24,3.24,0,0,1,9.7,12.93Z"/><circle class="cls-1" cx="14.87" cy="4.52" r="1.16"/></g></g></svg>