<?xml version="1.0" encoding="utf-8"?>
<!-- Generator: Adobe Illustrator 25.0.0, SVG Export Plug-In . SVG Version: 6.00 Build 0)  -->
<svg version="1.1" id="レイヤー_1" xmlns="http://www.w3.org/2000/svg" xmlns:xlink="http://www.w3.org/1999/xlink" x="0px"
	 y="0px" viewBox="0 0 270 80.01" style="enable-background:new 0 0 270 80.01;" xml:space="preserve">
<g>
	<g>
		<path d="M0,1.13h5.06v41.34h19.39V47H0V1.13z"/>
		<path d="M36.42,1.13h28.65v4.51H41.46v14.37h23.41v4.51H41.46v17.95h23.41V47H36.42V1.13z"/>
		<path d="M94.07,38.43l4.27-2.33c3.01,5.07,6.46,7.61,10.39,7.61c1.67,0,3.26-0.36,4.73-1.08c1.47-0.71,2.6-1.68,3.36-2.89
			c0.78-1.2,1.16-2.49,1.16-3.84c0-1.54-0.57-3.05-1.7-4.52c-1.58-2.03-4.43-4.49-8.57-7.36c-4.18-2.87-6.78-4.98-7.8-6.26
			c-1.78-2.15-2.66-4.49-2.66-7c0-2,0.54-3.82,1.57-5.45c1.05-1.64,2.52-2.93,4.42-3.87c1.91-0.95,3.97-1.43,6.21-1.43
			c2.35,0,4.57,0.54,6.63,1.61c2.06,1.07,4.23,3.03,6.54,5.91l-4.1,2.83c-1.89-2.29-3.49-3.81-4.81-4.55
			c-1.33-0.73-2.77-1.1-4.33-1.1c-2.03,0-3.67,0.57-4.95,1.69c-1.27,1.12-1.91,2.51-1.91,4.15c0,1,0.23,1.96,0.67,2.9
			c0.46,0.93,1.29,1.95,2.49,3.05c0.65,0.59,2.8,2.12,6.46,4.59c4.32,2.92,7.28,5.54,8.9,7.82c1.61,2.28,2.41,4.58,2.41,6.88
			c0,3.32-1.38,6.22-4.15,8.66c-2.76,2.45-6.12,3.67-10.09,3.67c-3.04,0-5.8-0.74-8.29-2.23C98.45,44.4,96.18,41.92,94.07,38.43z"/>
		<path d="M154.97,0c6.94,0,12.75,2.33,17.44,6.95c4.68,4.63,7,10.33,7,17.09c0,6.71-2.33,12.4-6.99,17.07
			c-4.68,4.67-10.37,7-17.08,7c-6.81,0-12.55-2.33-17.21-6.98c-4.68-4.65-7.02-10.28-7.02-16.87c0-4.41,1.05-8.48,3.18-12.25
			c2.14-3.75,5.04-6.69,8.72-8.82C146.71,1.07,150.69,0,154.97,0z M155.17,4.42c-3.39,0-6.58,0.88-9.61,2.65
			c-3.04,1.77-5.4,4.16-7.09,7.16c-1.72,2.99-2.56,6.33-2.56,10.02c0,5.46,1.88,10.06,5.66,13.82c3.76,3.75,8.3,5.64,13.61,5.64
			c3.55,0,6.82-0.87,9.86-2.6c3.01-1.72,5.36-4.09,7.05-7.08c1.69-3,2.55-6.33,2.55-10c0-3.65-0.85-6.94-2.55-9.88
			c-1.69-2.94-4.07-5.31-7.14-7.08C161.88,5.31,158.62,4.42,155.17,4.42z"/>
		<path d="M189.67,1.3h5.04v27.64c0,3.28,0.08,5.31,0.21,6.12c0.26,1.81,0.82,3.32,1.75,4.53c0.9,1.21,2.3,2.23,4.19,3.06
			c1.89,0.81,4.11,1.07,6.02,1.07c1.66,0,3.75-0.49,5.26-1.14c1.53-0.64,2.8-1.53,3.83-2.66c1.03-1.14,1.78-2.52,2.25-4.14
			c0.33-1.17,0.51-3.55,0.51-7.17V0.97h5.05v27.67c0,4.09-0.44,7.4-1.32,9.92c-0.88,2.51-2.62,4.72-5.25,6.59
			c-2.64,1.87-6.32,2.96-10.05,2.96c-4.06,0-7.86-0.71-10.76-2.48c-2.89-1.77-4.83-4.1-5.8-7.02c-0.62-1.78-0.92-5.01-0.92-9.65V1.3
			z"/>
		<path d="M236.12,1.13h5.05v17.22l20.3-17.22h6.66l-24.26,20.58L270,47h-6.76l-22.06-21.36V47h-5.05V1.13z"/>
	</g>
	<g>
		<path d="M82.45,56.3c0,0,0,9.43,0,10.49H71.07c0-1.06,0-10.49,0-10.49h-2.44v23.42h2.44c0,0,0-9.43,0-10.49h11.38
			c0,1.06,0,10.49,0,10.49h2.45V56.3H82.45z"/>
		<path d="M109.6,59.48c-2.34-2.33-5.19-3.52-8.49-3.52c-3.29,0-6.15,1.18-8.48,3.52c-2.33,2.33-3.51,5.19-3.51,8.48
			c0,3.31,1.18,6.16,3.51,8.49c2.33,2.33,5.19,3.52,8.48,3.52c3.3,0,6.16-1.18,8.49-3.52c2.33-2.33,3.51-5.19,3.51-8.49
			C113.11,64.66,111.93,61.81,109.6,59.48z M101.1,77.5c-2.65,0-4.85-0.91-6.73-2.8c-1.88-1.88-2.8-4.09-2.8-6.75
			c0-2.65,0.91-4.85,2.8-6.73c1.88-1.88,4.09-2.8,6.73-2.8c2.66,0,4.87,0.92,6.75,2.8c1.88,1.88,2.8,4.08,2.8,6.73
			c0,2.66-0.92,4.87-2.8,6.75C105.97,76.59,103.76,77.5,101.1,77.5z"/>
		<path d="M120.65,77.27c0-1.12,0-20.97,0-20.97h-2.45v23.42h11.51v-2.45C129.72,77.27,121.68,77.27,120.65,77.27z"/>
		<path d="M158.75,59.54c-2.12-2.13-5.12-3.22-8.92-3.24h-5.31v23.42h5.31c3.8-0.02,6.81-1.1,8.93-3.22
			c2.33-2.33,3.51-5.18,3.51-8.49C162.25,64.73,161.07,61.88,158.75,59.54z M146.96,58.79c0.74,0,2.85,0,2.85,0
			c3.02,0,5.43,0.84,7.15,2.49c1.86,1.87,2.77,4.08,2.77,6.73c0,2.66-0.91,4.86-2.78,6.74c-1.72,1.65-4.12,2.5-7.14,2.5
			c0,0-2.1,0-2.85,0V58.79z"/>
		<path d="M174.89,56.3h-2.12l-8.59,23.42h2.6c0,0,3.35-9.06,3.62-9.78h6.86c0.26,0.72,3.55,9.78,3.55,9.78h2.58L174.89,56.3z
			 M176.36,67.51h-5.08c0.4-1.09,1.85-5.07,2.55-6.99C174.52,62.44,175.97,66.42,176.36,67.51z"/>
		<path d="M198.57,56.3c0,0-5.62,9.74-6.5,11.26c-0.88-1.53-6.5-11.26-6.5-11.26h-2.8c0,0,7.92,13.72,8.08,13.99
			c0,0.31,0,9.43,0,9.43h2.44c0,0,0-9.12,0-9.43c0.16-0.27,8.08-13.99,8.08-13.99H198.57z"/>
		<polyline points="137.7,56.59 135.25,56.59 135.25,80.01 137.7,80.01 		"/>
	</g>
</g>
</svg>
