<svg xmlns="http://www.w3.org/2000/svg" viewBox="0 0 71.4 13.9"><defs><style>.cls-1{fill:#d5d5d6;}</style></defs><g id="レイヤー_2" data-name="レイヤー 2"><g id="Design"><path class="cls-1" d="M0,13.69V.21H1.9L6.22,7a38.16,38.16,0,0,1,2.42,4.38l0,0c-.16-1.8-.2-3.44-.2-5.54V.21h1.64V13.69H8.36L4.08,6.85a42.79,42.79,0,0,1-2.52-4.5l-.06,0c.1,1.7.14,3.32.14,5.56v5.76Z"/><path class="cls-1" d="M28.14,7.38H22.9v4.86h5.84V13.7H21.16V.21h7.28V1.67H22.9V5.94h5.24Z"/><path class="cls-1" d="M41.2,13.7,37.78.22h1.84L41.22,7c.4,1.68.76,3.36,1,4.66h0c.22-1.34.64-2.94,1.1-4.68l1.8-6.8H47l1.64,6.84c.38,1.6.74,3.2.94,4.62h0c.28-1.48.66-3,1.08-4.66L52.46.22h1.79L50.42,13.7H48.6l-1.7-7A40.59,40.59,0,0,1,46,2.28h0a42.11,42.11,0,0,1-1,4.4L43,13.7Z"/><path class="cls-1" d="M63.68,11.58a6.17,6.17,0,0,0,3.12.88c1.78,0,2.82-.94,2.82-2.3s-.72-2-2.54-2.68c-2.2-.78-3.56-1.92-3.56-3.82,0-2.1,1.74-3.66,4.36-3.66a6.12,6.12,0,0,1,3,.66l-.48,1.42a5.37,5.37,0,0,0-2.56-.64c-1.84,0-2.54,1.1-2.54,2,0,1.26.82,1.88,2.68,2.6,2.28.88,3.44,2,3.44,4s-1.54,3.88-4.72,3.88A7,7,0,0,1,63.24,13Z"/></g></g></svg>