<svg xmlns="http://www.w3.org/2000/svg" viewBox="0 0 172.6 27.85"><defs><style>.cls-1{fill:#d5d5d6;}</style></defs><g id="レイヤー_2" data-name="レイヤー 2"><g id="Design"><path class="cls-1" d="M.88,23.16a12.33,12.33,0,0,0,6.24,1.76c3.56,0,5.64-1.88,5.64-4.6,0-2.52-1.44-4-5.08-5.36C3.28,13.4.56,11.12.56,7.32.56,3.12,4,0,9.28,0a12.25,12.25,0,0,1,6,1.32l-1,2.84A10.74,10.74,0,0,0,9.16,2.88c-3.68,0-5.08,2.2-5.08,4,0,2.52,1.64,3.76,5.36,5.2,4.56,1.76,6.88,4,6.88,7.92,0,4.16-3.08,7.76-9.44,7.76A14,14,0,0,1,0,26.07Z"/><path class="cls-1" d="M42.2,3.4H34v-3H54v3H45.72v24H42.2Z"/><path class="cls-1" d="M96,13.65c0,9.28-5.64,14.2-12.52,14.2-7.12,0-12.12-5.52-12.12-13.68C71.36,5.61,76.68,0,83.88,0,91.24,0,96,5.65,96,13.65Zm-20.92.44c0,5.76,3.12,10.92,8.6,10.92s8.64-5.08,8.64-11.2c0-5.36-2.8-11-8.6-11S75.08,8.17,75.08,14.09Z"/><path class="cls-1" d="M116.52.82A36.25,36.25,0,0,1,123.2.26c3.72,0,6.12.68,7.8,2.2a6.71,6.71,0,0,1,2.12,5.12A7.08,7.08,0,0,1,128,14.46v.12c2.08.72,3.32,2.64,4,5.44a43,43,0,0,0,2.08,7.39h-3.6a34.93,34.93,0,0,1-1.8-6.44c-.8-3.71-2.24-5.12-5.4-5.24H120V27.41h-3.48ZM120,13.09h3.56c3.72,0,6.08-2,6.08-5.12,0-3.48-2.52-5-6.2-5a14.32,14.32,0,0,0-3.44.32Z"/><path class="cls-1" d="M160,27.42V16L151.52.46h4l3.8,7.44c1,2,1.84,3.68,2.68,5.56H162c.76-1.76,1.68-3.52,2.72-5.56L168.64.46h4l-9,15.48V27.42Z"/></g></g></svg>