<svg xmlns="http://www.w3.org/2000/svg" viewBox="0 0 21.54 17.49"><defs><style>.cls-1{fill:#999;}</style></defs><g id="レイヤー_2" data-name="レイヤー 2"><g id="Design"><path class="cls-1" d="M21.54,2.07a9.11,9.11,0,0,1-2.54.7A4.47,4.47,0,0,0,20.94.32,8.78,8.78,0,0,1,18.13,1.4a4.41,4.41,0,0,0-7.64,3,4.15,4.15,0,0,0,.12,1A12.53,12.53,0,0,1,1.5.81,4.4,4.4,0,0,0,2.87,6.7a4.33,4.33,0,0,1-2-.55v.06a4.42,4.42,0,0,0,3.54,4.33,4.45,4.45,0,0,1-1.16.15,4.6,4.6,0,0,1-.84-.08,4.44,4.44,0,0,0,4.13,3.07,8.9,8.9,0,0,1-5.49,1.89,9.24,9.24,0,0,1-1-.06,12.55,12.55,0,0,0,6.77,2A12.48,12.48,0,0,0,19.34,4.92V4.35A8.87,8.87,0,0,0,21.54,2.07Z"/></g></g></svg>